<svg xmlns="http://www.w3.org/2000/svg" style="display: none;">

  <symbol id="flame" viewBox="0 0 24 24">
    <path fill="none" d="M0 0h24v24H0z"/>
    <path d="M19.48 12.35c-1.57-4.08-7.16-4.3-5.81-10.23.1-.44-.37-.78-.75-.55C9.29 3.71 6.68 8 8.87 13.62c.18.46-.36.89-.75.59-1.81-1.37-2-3.34-1.84-4.75.06-.52-.62-.77-.91-.34C4.69 10.16 4 11.84 4 14.37c.38 5.6 5.11 7.32 6.81 7.54 2.43.31 5.06-.14 6.95-1.87 2.08-1.93 2.84-5.01 1.72-7.69zm-9.28 5.03c1.44-.35 2.18-1.39 2.38-2.31.33-1.43-.96-2.83-.09-5.09.33 1.87 3.27 3.04 3.27 5.08.08 2.53-2.66 4.7-5.56 2.32z"/>
  </symbol>

  <symbol id="rescue" viewBox="0 0 24 24">
    <path fill="none" d="M0 0h24v24H0z"/>
    <path d="M12 2C6.48 2 2 6.48 2 12s4.48 10 10 10 10-4.48 10-10S17.52 2 12 2zm7.46 7.12-2.78 1.15a4.982 4.982 0 0 0-2.95-2.94l1.15-2.78c2.1.8 3.77 2.47 4.58 4.57zM12 15c-1.66 0-3-1.34-3-3s1.34-3 3-3 3 1.34 3 3-1.34 3-3 3zM9.13 4.54l1.17 2.78a5 5 0 0 0-2.98 2.97L4.54 9.13a7.984 7.984 0 0 1 4.59-4.59zM4.54 14.87l2.78-1.15a4.968 4.968 0 0 0 2.97 2.96l-1.17 2.78a7.996 7.996 0 0 1-4.58-4.59zm10.34 4.59-1.15-2.78a4.978 4.978 0 0 0 2.95-2.97l2.78 1.17a8.007 8.007 0 0 1-4.58 4.58z"/>
  </symbol>

  <symbol id="alert" viewBox="0 0 24 24">
    <path fill="none" d="M0 0h24v24H0V0z"/>
    <path d="M12 22c1.1 0 2-.9 2-2h-4c0 1.1.9 2 2 2zm6-6v-5c0-3.07-1.63-5.64-4.5-6.32V4c0-.83-.67-1.5-1.5-1.5s-1.5.67-1.5 1.5v.68C7.64 5.36 6 7.92 6 11v5l-2 2v1h16v-1l-2-2zm-2 1H8v-6c0-2.48 1.51-4.5 4-4.5s4 2.02 4 4.5v6zM7.58 4.08 6.15 2.65C3.75 4.48 2.17 7.3 2.03 10.5h2a8.445 8.445 0 0 1 3.55-6.42zm12.39 6.42h2c-.15-3.2-1.73-6.02-4.12-7.85l-1.42 1.43a8.495 8.495 0 0 1 3.54 6.42z"/>
  </symbol>

  <symbol id="warning" viewBox="0 0 24 24">
    <path fill="none" d="M0 0h24v24H0z"/>
    <path d="M18 11v2h4v-2h-4zM16 17.61c.96.71 2.21 1.65 3.2 2.39.4-.53.8-1.07 1.2-1.6-.99-.74-2.24-1.68-3.2-2.4-.4.54-.8 1.08-1.2 1.61zM20.4 5.6c-.4-.53-.8-1.07-1.2-1.6-.99.74-2.24 1.68-3.2 2.4.4.53.8 1.07 1.2 1.6.96-.72 2.21-1.65 3.2-2.4zM4 9c-1.1 0-2 .9-2 2v2c0 1.1.9 2 2 2h1v4h2v-4h1l5 3V6L8 9H4zm5.03 1.71L11 9.53v4.94l-1.97-1.18-.48-.29H4v-2h4.55l.48-.29zM15.5 12c0-1.33-.58-2.53-1.5-3.35v6.69c.92-.81 1.5-2.01 1.5-3.34z"/>
  </symbol>

  <symbol id="storm" viewBox="0 0 24 24">
    <path fill="none" d="M0 0h24v24H0V0z"/>
    <path d="M18.93 8C16.72 4.18 11.82 2.87 8 5.07c-1.41.82-2.48 2-3.16 3.37-.13-2.2.22-4.4 1.02-6.44H3.74C2.2 6.49 2.52 11.58 5.07 16a7.96 7.96 0 0 0 4.86 3.72c1.98.53 4.16.31 6.07-.79 1.41-.82 2.48-2 3.16-3.37.13 2.2-.21 4.4-1.01 6.44h2.11c1.53-4.49 1.22-9.58-1.33-14zM15 17.2A6.012 6.012 0 0 1 6.8 15c-.11-.2-.21-.4-.3-.6-1.2-2.76-.17-6.06 2.5-7.6 2.86-1.65 6.54-.67 8.2 2.2.11.2.21.4.3.6 1.2 2.76.17 6.06-2.5 7.6zM12 10c1.1 0 2 .9 2 2s-.9 2-2 2-2-.9-2-2 .9-2 2-2m0-2c-2.21 0-4 1.79-4 4s1.79 4 4 4 4-1.79 4-4-1.79-4-4-4z"/>
  </symbol>

  <symbol id="profile" viewBox="0 0 24 24">
    <path fill="none" d="M0 0h24v24H0V0z"/>
    <path d="M12 5.9a2.1 2.1 0 1 1 0 4.2 2.1 2.1 0 0 1 0-4.2m0 9c2.97 0 6.1 1.46 6.1 2.1v1.1H5.9V17c0-.64 3.13-2.1 6.1-2.1M12 4C9.79 4 8 5.79 8 8s1.79 4 4 4 4-1.79 4-4-1.79-4-4-4zm0 9c-2.67 0-8 1.34-8 4v3h16v-3c0-2.66-5.33-4-8-4z"/>
  </symbol>

  <symbol id="highlight" viewBox="0 0 24 24">
    <path d="M0 0h24v24H0z" fill="none"/>
    <path d="m6 14 3 3v5h6v-5l3-3V9H6v5zm2-3h8v2.17l-3 3V20h-2v-3.83l-3-3V11zm3-9h2v3h-2zM3.502 5.874 4.916 4.46l2.122 2.12-1.414 1.415zm13.458.708 2.123-2.12 1.413 1.416-2.123 2.12z"/>
  </symbol>

  <symbol id="news" viewBox="0 0 24 24">
    <path fill="none" d="M0 0h24v24H0z"/>
    <path d="m22 3-1.67 1.67L18.67 3 17 4.67 15.33 3l-1.66 1.67L12 3l-1.67 1.67L8.67 3 7 4.67 5.33 3 3.67 4.67 2 3v16c0 1.1.9 2 2 2h16c1.1 0 2-.9 2-2V3zM11 19H4v-6h7v6zm9 0h-7v-2h7v2zm0-4h-7v-2h7v2zm0-4H4V8h16v3z"/>
  </symbol>

  <symbol id="learn" viewBox="0 0 24 24">
    <path fill="none" d="M0 0h24v24H0V0z"/>
    <path d="M12 3 1 9l4 2.18v6L12 21l7-3.82v-6l2-1.09V17h2V9L12 3zm6.82 6L12 12.72 5.18 9 12 5.28 18.82 9zM17 15.99l-5 2.73-5-2.73v-3.72L12 15l5-2.73v3.72z"/>
  </symbol>

  <symbol id="fact-check" viewBox="0 0 24 24">
    <path fill="none" d="M0 0h24v24H0z"/>
    <g fill-rule="evenodd">
      <path d="M20 3H4c-1.1 0-2 .9-2 2v14c0 1.1.9 2 2 2h16c1.1 0 2-.9 2-2V5c0-1.1-.9-2-2-2zm0 16H4V5h16v14z"/>
      <path d="M19.41 10.42 17.99 9l-3.17 3.17-1.41-1.42L12 12.16 14.82 15zM5 7h5v2H5zM5 11h5v2H5zM5 15h5v2H5z"/>
    </g>
  </symbol>

  <symbol id="stats" viewBox="0 0 24 24">
    <path fill="none" d="M0 0h24v24H0z"/>
    <path d="m2 19.99 7.5-7.51 4 4 7.09-7.97L22 9.92l-8.5 9.56-4-4-6 6.01-1.5-1.5zm1.5-4.5 6-6.01 4 4L22 3.92l-1.41-1.41-7.09 7.97-4-4L2 13.99l1.5 1.5z"/>
  </symbol>

  <symbol id="right-arrow" viewBox="0 0 24 24">
    <path d="M0 0h24v24H0V0z" fill="none"/>
    <path d="m12 4-1.41 1.41L16.17 11H4v2h12.17l-5.58 5.59L12 20l8-8-8-8z"/>
  </symbol>

  <symbol id="menu" viewBox="0 0 24 24">
    <path d="M0 0h24v24H0V0z" fill="none"/>
    <path d="M3 18h18v-2H3v2zm0-5h18v-2H3v2zm0-7v2h18V6H3z"/>
  </symbol>

  <symbol id="close" viewBox="0 0 24 24">
    <path d="M0 0h24v24H0V0z" fill="none"/>
    <path d="M19 6.41 17.59 5 12 10.59 6.41 5 5 6.41 10.59 12 5 17.59 6.41 19 12 13.41 17.59 19 19 17.59 13.41 12 19 6.41z"/>
  </symbol>

</svg>